<svg viewBox="0 0 1070 126.4" id="planningpoker">
  <path
    fill="currentColor"
    d="M47,98.2c17.1,0,29.7-15.5,29.7-36.5c0-20.7-13.7-36-32.3-36c-10.5,0-17.7,4.3-22.6,11.8V27.1H0v98h25.2V86.5  C29.3,94,37,98.2,47,98.2L47,98.2L47,98.2z M38.3,76.9c-5.3,0-10.6-4.6-13-10.8v-12c3.4-4.8,7.2-7.2,12-7.2  c8.2,0,13.8,5.8,13.8,14.6C51,70,45.6,76.9,38.3,76.9L38.3,76.9L38.3,76.9z M85.3,78c0,13,7.5,20.2,20.9,20.2  c6.6,0,14.9-1.7,20.8-4.5l-3.2-20.3c-2.1,1.2-4.8,2-6.9,2c-4.3,0-6.5-2.8-6.5-8V0H85.2v78H85.3z M154.5,98.2  c9.2,0,17.5-4.3,23.7-12.2l0.5,2.5c1.4,6.3,5.8,9.7,14.9,9.7c3.2,0,7.3-0.4,12-1.4V75.6c-4.6-0.3-6.1-1.8-6.1-6.6V55.4  c0-19.7-12.6-29.7-34.8-29.7c-12,0-22.1,2.9-31.4,8.9l7.3,15.7c7.4-4.9,13.8-7.5,21.7-7.5c8.5,0,12,3.2,12,9.7v2.1  c-3.6-1.7-8.6-2.6-14-2.6c-17.7,0-30.1,9.8-30.1,23.9C130.1,88.6,140.5,98.2,154.5,98.2L154.5,98.2L154.5,98.2z M162,80.1  c-4.8,0-8.2-2.8-8.2-6.6c0-4.5,4.6-8,10.8-8c2.8,0,6.8,0.8,9.7,1.8v5.2c0,1.7-1.4,3.6-3.4,4.9C168.5,79.1,165.1,80.1,162,80.1  L162,80.1L162,80.1z M284.2,50.9c0-9.5-2.3-25.2-21.2-25.2c-12,0-21.4,4.1-26.3,11.7V27.1H214v69.8h25.2V57.8c2.3-5.8,7.8-10,12-10  c4.1,0,7.7,2.9,7.7,9.8v39.2h25.2L284.2,50.9L284.2,50.9z M366.6,50.9c0-9.5-2.3-25.2-21.2-25.2c-12,0-21.4,4.1-26.3,11.7V27.1  h-22.7v69.8h25.2V57.8c2.3-5.8,7.8-10,12-10c4.1,0,7.7,2.9,7.7,9.8v39.2h25.2L366.6,50.9L366.6,50.9z M404,96.9V27.1h-25.3v69.8  L404,96.9L404,96.9z M404,21.2V0h-25.3v21.2H404L404,21.2z M486.9,50.9c0-9.5-2.3-25.2-21.2-25.2c-12,0-21.4,4.1-26.3,11.7V27.1  h-22.7v69.8H442V57.8c2.3-5.8,7.8-10,12-10c4.1,0,7.7,2.9,7.7,9.8v39.2h25.2V50.9L486.9,50.9z M525.8,96.9c8.9,0,17.1-3.6,21.1-10.9  v4.5c0,12.5-8.1,17.2-17.2,17.2c-8.1,0-15.7-3.7-20.7-8.5L495.9,113c8.5,8.6,19.2,13.4,34,13.4c25.5,0,42.4-14.2,42.4-36V27h-21.9  v10.3c-4.3-7.5-12.3-11.7-22.3-11.7c-19.1,0-32.5,15.2-32.5,36.1C495.5,81.6,507.6,96.9,525.8,96.9L525.8,96.9L525.8,96.9z   M534.9,76.9c-8,0-13.7-5.8-13.7-14.5c0-8.5,5.4-15.5,12.6-15.5c5.3,0,10.6,4,13.1,10.3v12.5C543.6,74.6,539.9,76.9,534.9,76.9  L534.9,76.9L534.9,76.9z M631.9,98.2c17.1,0,29.7-15.5,29.7-36.5c0-20.7-13.7-36-32.3-36c-10.5,0-17.7,4.3-22.6,11.8V27.1h-21.9v98  H610V86.5C614.1,94,621.7,98.2,631.9,98.2L631.9,98.2L631.9,98.2z M623.1,76.9c-5.3,0-10.6-4.6-13-10.8v-12c3.4-4.8,7.2-7.2,12-7.2  c8.2,0,13.8,5.8,13.8,14.6C635.8,70,630.4,76.9,623.1,76.9L623.1,76.9L623.1,76.9z M704.9,98.2c24.9,0,38.2-17.1,38.2-36.2  c0-19.2-13.2-36.2-38.2-36.2S666.7,42.7,666.7,62C666.7,81.1,680,98.2,704.9,98.2L704.9,98.2L704.9,98.2z M692.6,62  c0-9.2,5.2-14.9,12.3-14.9c7.2,0,12.3,5.7,12.3,14.9c0,9.2-5.2,14.9-12.3,14.9C697.7,76.9,692.6,71.2,692.6,62L692.6,62L692.6,62z   M824.7,96.9l-26.4-39.2l24-30.5h-26.5L777.2,53V0H752v96.9h25.2V77l5.1-5.5L798.1,97h26.6V96.9z M860.1,98.2  c16.9,0,29.1-7.8,34.8-18.9l-21.4-6.1c-1.6,4.3-7.2,7.1-12.6,7.1c-5.8,0-11.7-3.1-12.2-10.5h48.9c0.4-2.1,0.6-5.1,0.6-7.7  c0-19.2-13.2-36.2-38.2-36.2c-24.9,0-38.2,16.9-38.2,37.1C821.9,81.6,835.5,98.2,860.1,98.2L860.1,98.2L860.1,98.2z M848.1,54.5  c0.8-6.8,5.2-10.9,11.5-10.9s10.8,4.1,11.5,10.9H848.1L848.1,54.5z M954,25.9c-0.6-0.1-1.4-0.1-3.2-0.1c-8.3,0-16.2,5.3-21.1,14.6  V27.1h-23.1v69.8h25.2V55.5c3.8-4.9,12.5-6.9,22.1-6.9L954,25.9L954,25.9L954,25.9z M974.1,68.3c6.5,0,11.1,3.1,13.4,7.5l-8.5,2.5  c-1.1-1.7-2.8-2.7-5-2.7c-3.6,0-6.3,2.9-6.3,7.4s2.8,7.5,6.3,7.5c2.2,0,4.2-1.2,5-2.8l8.5,2.6c-2.1,4.4-6.9,7.5-13.4,7.5  c-9.6,0-15.3-7-15.3-14.9C958.7,75.2,964.4,68.3,974.1,68.3L974.1,68.3z M989.5,83.2c0-7.9,5.5-14.9,15.3-14.9  c9.7,0,15.3,7,15.3,14.9c0,7.8-5.5,14.8-15.3,14.8S989.5,91,989.5,83.2L989.5,83.2z M1004.7,90.6c3.6,0,6.3-3.1,6.3-7.4  c0-4.4-2.7-7.4-6.3-7.4s-6.3,3.1-6.3,7.4C998.3,87.6,1001.1,90.6,1004.7,90.6L1004.7,90.6z M1069.3,97.4h-8.7v-16  c0-3.7-1.4-5.3-3.7-5.3s-4.8,2.1-5.8,5.1v16.4h-8.7V81.5c0-3.7-1.4-5.3-3.7-5.3s-4.8,2.1-5.8,5.1v16.4h-8.7V69.1h7.8v4.8  c2.1-3.4,5.8-5.3,10.6-5.3c4.7,0,7.2,2.5,7.9,5.5c2.1-3.5,5.8-5.5,10.3-5.5c7.2,0,8.5,6.1,8.5,10.8L1069.3,97.4L1069.3,97.4z   M951.9,97.6c2.2,0,3.9-1.7,3.9-3.9c0-2.2-1.7-3.9-3.9-3.9s-3.9,1.7-3.9,3.9C948.1,95.8,949.8,97.6,951.9,97.6L951.9,97.6z   M957.5,28.5c0.4-0.7,0.8-1.4,1.4-1.9c0.5-0.5,1.3-0.9,2-1.3c0.7-0.3,1.5-0.5,2.4-0.5s1.6,0.2,2.4,0.5c0.7,0.3,1.4,0.7,2,1.3  c0.5,0.5,1,1.2,1.4,1.9c0.4,0.7,0.5,1.6,0.5,2.5s-0.2,1.8-0.5,2.5c-0.4,0.7-0.8,1.4-1.4,1.9c-0.5,0.5-1.3,0.9-2,1.2  s-1.5,0.5-2.4,0.5s-1.6-0.2-2.4-0.5s-1.4-0.7-2-1.2c-0.5-0.5-1-1.2-1.4-1.9c-0.4-0.7-0.5-1.6-0.5-2.5  C956.9,30.1,957.1,29.3,957.5,28.5L957.5,28.5z M958.9,33c0.3,0.5,0.5,1.1,1,1.5s0.9,0.7,1.4,1s1.2,0.4,1.8,0.4  c0.6,0,1.3-0.1,1.8-0.4s1.1-0.5,1.4-1c0.5-0.5,0.7-0.9,1-1.5c0.3-0.5,0.4-1.3,0.4-1.9s-0.1-1.4-0.4-1.9s-0.5-1.1-1-1.5  s-0.9-0.7-1.4-1s-1.2-0.4-1.8-0.4c-0.6,0-1.3,0.1-1.8,0.4s-1.1,0.5-1.4,1c-0.5,0.5-0.7,0.9-1,1.5c-0.3,0.5-0.4,1.2-0.4,1.9  C958.6,31.8,958.7,32.3,958.9,33L958.9,33L958.9,33z M963.4,27.9c0.8,0,1.4,0.2,1.8,0.5c0.5,0.3,0.6,0.7,0.6,1.4  c0,0.3,0,0.5-0.1,0.7s-0.2,0.4-0.4,0.5c-0.2,0.1-0.4,0.3-0.5,0.3c-0.2,0.1-0.5,0.1-0.6,0.1l1.6,2.7h-1.3l-1.5-2.6h-0.8v2.6h-1.3  v-6.2H963.4L963.4,27.9z M963.3,30.5c0.4,0,0.6-0.1,0.9-0.2c0.2-0.1,0.4-0.4,0.4-0.7c0-0.2,0-0.3-0.1-0.4l-0.3-0.3  c-0.1-0.1-0.3-0.1-0.5-0.1h-0.5h-1.1v1.6h1.2V30.5z"
  />
</svg>
